<svg xmlns="http://www.w3.org/2000/svg" width="78" height="24" viewBox="0 0 78 24">
  <g fill="#FEFEFE" fill-rule="evenodd">
    <polygon points="2 1 2 10 8.73 10 8.73 8.515 3.757 8.515 3.757 6.143 7.558 6.143 7.558 4.671 3.757 4.671 3.757 2.486 8.73 2.486 8.73 1"/>
    <polygon points="47 1 47 10.007 53.734 10.007 53.734 8.52 48.759 8.52 48.759 6.147 52.562 6.147 52.562 4.674 48.759 4.674 48.759 2.487 53.734 2.487 53.734 1"/>
    <polygon points="25 1 25 10.007 31.762 10.007 31.762 8.52 26.787 8.52 26.787 1"/>
    <polygon points="53.029 14 53.029 19.098 50.019 14 48.059 14 48.059 23 49.918 23 49.918 17.431 53.232 23 54.887 23 54.887 14"/>
    <polygon points="70 14 70 15.486 72.541 15.486 72.541 23 74.326 23 74.326 15.486 76.789 15.486 76.789 14"/>
    <polygon points="1.808 23 1.808 14 3.594 14 3.594 17.671 6.748 17.671 6.748 14 8.534 14 8.534 23 6.748 23 6.748 19.143 3.594 19.143 3.594 23"/>
    <path d="M72.9803408 5.39443121C74.3082659 5.39443121 74.8879235 4.88546834 74.8879235 3.92452922 74.8879235 2.96398176 74.3082659 2.42701516 72.9803408 2.42701516L71.7522892 2.42701516 71.7522892 5.39443121 72.9803408 5.39443121zM71.7522892 9.90166066L70 9.90166066 70 1 73.0369358 1C75.3115044 1 76.6114257 2.06002924 76.6114257 3.91101693 76.6114257 5.76180879 75.3115044 6.83515449 73.0369358 6.83515449L71.7522892 6.83515449 71.7522892 9.90166066zM29.6037822 19.3998812L28.2469317 16.0286431 28.1889195 16.0286431 26.86058 19.3998812 29.6037822 19.3998812zM29.1462189 14L32.9465093 23 31.0465621 23 30.1466809 20.7713833 26.3182754 20.7713833 25.4467073 23 23.6465489 23 27.2896323 14 29.1462189 14z"/>
  </g>
</svg>
